G04 #@! TF.GenerationSoftware,KiCad,Pcbnew,(5.1.2-1)-1*
G04 #@! TF.CreationDate,2019-07-21T21:36:06+01:00*
G04 #@! TF.ProjectId,glowy_nfc_reader_module,676c6f77-795f-46e6-9663-5f7265616465,rev?*
G04 #@! TF.SameCoordinates,Original*
G04 #@! TF.FileFunction,Soldermask,Bot*
G04 #@! TF.FilePolarity,Negative*
%FSLAX46Y46*%
G04 Gerber Fmt 4.6, Leading zero omitted, Abs format (unit mm)*
G04 Created by KiCad (PCBNEW (5.1.2-1)-1) date 2019-07-21 21:36:06*
%MOMM*%
%LPD*%
G04 APERTURE LIST*
%ADD10C,0.100000*%
G04 APERTURE END LIST*
D10*
G36*
X147442022Y-131840590D02*
G01*
X147542681Y-131871125D01*
X147593012Y-131886392D01*
X147732164Y-131960771D01*
X147854133Y-132060867D01*
X147954229Y-132182835D01*
X148028608Y-132321987D01*
X148043875Y-132372318D01*
X148074410Y-132472977D01*
X148086000Y-132590655D01*
X148086000Y-136169345D01*
X148074410Y-136287023D01*
X148043875Y-136387682D01*
X148028608Y-136438013D01*
X147954229Y-136577165D01*
X147854133Y-136699133D01*
X147732165Y-136799229D01*
X147593013Y-136873608D01*
X147542682Y-136888875D01*
X147442023Y-136919410D01*
X147285000Y-136934875D01*
X147127978Y-136919410D01*
X147027319Y-136888875D01*
X146976988Y-136873608D01*
X146837836Y-136799229D01*
X146715868Y-136699133D01*
X146615772Y-136577165D01*
X146541393Y-136438013D01*
X146526126Y-136387682D01*
X146495591Y-136287023D01*
X146484001Y-136169345D01*
X146484000Y-132590656D01*
X146495590Y-132472978D01*
X146541392Y-132321989D01*
X146541392Y-132321988D01*
X146615771Y-132182836D01*
X146615772Y-132182835D01*
X146715867Y-132060867D01*
X146837835Y-131960771D01*
X146976987Y-131886392D01*
X147027318Y-131871125D01*
X147127977Y-131840590D01*
X147285000Y-131825125D01*
X147442022Y-131840590D01*
X147442022Y-131840590D01*
G37*
G36*
X149982022Y-131840590D02*
G01*
X150082681Y-131871125D01*
X150133012Y-131886392D01*
X150272164Y-131960771D01*
X150394133Y-132060867D01*
X150494229Y-132182835D01*
X150568608Y-132321987D01*
X150583875Y-132372318D01*
X150614410Y-132472977D01*
X150626000Y-132590655D01*
X150626000Y-136169345D01*
X150614410Y-136287023D01*
X150583875Y-136387682D01*
X150568608Y-136438013D01*
X150494229Y-136577165D01*
X150394133Y-136699133D01*
X150272165Y-136799229D01*
X150133013Y-136873608D01*
X150082682Y-136888875D01*
X149982023Y-136919410D01*
X149825000Y-136934875D01*
X149667978Y-136919410D01*
X149567319Y-136888875D01*
X149516988Y-136873608D01*
X149377836Y-136799229D01*
X149255868Y-136699133D01*
X149155772Y-136577165D01*
X149081393Y-136438013D01*
X149066126Y-136387682D01*
X149035591Y-136287023D01*
X149024001Y-136169345D01*
X149024000Y-132590656D01*
X149035590Y-132472978D01*
X149081392Y-132321989D01*
X149081392Y-132321988D01*
X149155771Y-132182836D01*
X149155772Y-132182835D01*
X149255867Y-132060867D01*
X149377835Y-131960771D01*
X149516987Y-131886392D01*
X149567318Y-131871125D01*
X149667977Y-131840590D01*
X149825000Y-131825125D01*
X149982022Y-131840590D01*
X149982022Y-131840590D01*
G37*
G36*
X152522022Y-131840590D02*
G01*
X152622681Y-131871125D01*
X152673012Y-131886392D01*
X152812164Y-131960771D01*
X152934133Y-132060867D01*
X153034229Y-132182835D01*
X153108608Y-132321987D01*
X153123875Y-132372318D01*
X153154410Y-132472977D01*
X153166000Y-132590655D01*
X153166000Y-136169345D01*
X153154410Y-136287023D01*
X153123875Y-136387682D01*
X153108608Y-136438013D01*
X153034229Y-136577165D01*
X152934133Y-136699133D01*
X152812165Y-136799229D01*
X152673013Y-136873608D01*
X152622682Y-136888875D01*
X152522023Y-136919410D01*
X152365000Y-136934875D01*
X152207978Y-136919410D01*
X152107319Y-136888875D01*
X152056988Y-136873608D01*
X151917836Y-136799229D01*
X151795868Y-136699133D01*
X151695772Y-136577165D01*
X151621393Y-136438013D01*
X151606126Y-136387682D01*
X151575591Y-136287023D01*
X151564001Y-136169345D01*
X151564000Y-132590656D01*
X151575590Y-132472978D01*
X151621392Y-132321989D01*
X151621392Y-132321988D01*
X151695771Y-132182836D01*
X151695772Y-132182835D01*
X151795867Y-132060867D01*
X151917835Y-131960771D01*
X152056987Y-131886392D01*
X152107318Y-131871125D01*
X152207977Y-131840590D01*
X152365000Y-131825125D01*
X152522022Y-131840590D01*
X152522022Y-131840590D01*
G37*
G36*
X145546000Y-136931000D02*
G01*
X143944000Y-136931000D01*
X143944000Y-131829000D01*
X145546000Y-131829000D01*
X145546000Y-136931000D01*
X145546000Y-136931000D01*
G37*
G36*
X151857585Y-122858802D02*
G01*
X152007410Y-122888604D01*
X152289674Y-123005521D01*
X152543705Y-123175259D01*
X152759741Y-123391295D01*
X152929479Y-123645326D01*
X153046396Y-123927590D01*
X153106000Y-124227240D01*
X153106000Y-124532760D01*
X153046396Y-124832410D01*
X152929479Y-125114674D01*
X152759741Y-125368705D01*
X152543705Y-125584741D01*
X152289674Y-125754479D01*
X152007410Y-125871396D01*
X151857585Y-125901198D01*
X151707761Y-125931000D01*
X151402239Y-125931000D01*
X151252415Y-125901198D01*
X151102590Y-125871396D01*
X150820326Y-125754479D01*
X150566295Y-125584741D01*
X150350259Y-125368705D01*
X150180521Y-125114674D01*
X150063604Y-124832410D01*
X150004000Y-124532760D01*
X150004000Y-124227240D01*
X150063604Y-123927590D01*
X150180521Y-123645326D01*
X150350259Y-123391295D01*
X150566295Y-123175259D01*
X150820326Y-123005521D01*
X151102590Y-122888604D01*
X151252415Y-122858802D01*
X151402239Y-122829000D01*
X151707761Y-122829000D01*
X151857585Y-122858802D01*
X151857585Y-122858802D01*
G37*
G36*
X145857585Y-122858802D02*
G01*
X146007410Y-122888604D01*
X146289674Y-123005521D01*
X146543705Y-123175259D01*
X146759741Y-123391295D01*
X146929479Y-123645326D01*
X147046396Y-123927590D01*
X147106000Y-124227240D01*
X147106000Y-124532760D01*
X147046396Y-124832410D01*
X146929479Y-125114674D01*
X146759741Y-125368705D01*
X146543705Y-125584741D01*
X146289674Y-125754479D01*
X146007410Y-125871396D01*
X145857585Y-125901198D01*
X145707761Y-125931000D01*
X145402239Y-125931000D01*
X145252415Y-125901198D01*
X145102590Y-125871396D01*
X144820326Y-125754479D01*
X144566295Y-125584741D01*
X144350259Y-125368705D01*
X144180521Y-125114674D01*
X144063604Y-124832410D01*
X144004000Y-124532760D01*
X144004000Y-124227240D01*
X144063604Y-123927590D01*
X144180521Y-123645326D01*
X144350259Y-123391295D01*
X144566295Y-123175259D01*
X144820326Y-123005521D01*
X145102590Y-122888604D01*
X145252415Y-122858802D01*
X145402239Y-122829000D01*
X145707761Y-122829000D01*
X145857585Y-122858802D01*
X145857585Y-122858802D01*
G37*
G36*
X123535442Y-108725518D02*
G01*
X123601627Y-108732037D01*
X123771466Y-108783557D01*
X123927991Y-108867222D01*
X123963729Y-108896552D01*
X124065186Y-108979814D01*
X124148448Y-109081271D01*
X124177778Y-109117009D01*
X124261443Y-109273534D01*
X124312963Y-109443373D01*
X124330359Y-109620000D01*
X124312963Y-109796627D01*
X124261443Y-109966466D01*
X124177778Y-110122991D01*
X124148448Y-110158729D01*
X124065186Y-110260186D01*
X123963729Y-110343448D01*
X123927991Y-110372778D01*
X123771466Y-110456443D01*
X123601627Y-110507963D01*
X123535442Y-110514482D01*
X123469260Y-110521000D01*
X123380740Y-110521000D01*
X123314558Y-110514482D01*
X123248373Y-110507963D01*
X123078534Y-110456443D01*
X122922009Y-110372778D01*
X122886271Y-110343448D01*
X122784814Y-110260186D01*
X122701552Y-110158729D01*
X122672222Y-110122991D01*
X122588557Y-109966466D01*
X122537037Y-109796627D01*
X122519641Y-109620000D01*
X122537037Y-109443373D01*
X122588557Y-109273534D01*
X122672222Y-109117009D01*
X122701552Y-109081271D01*
X122784814Y-108979814D01*
X122886271Y-108896552D01*
X122922009Y-108867222D01*
X123078534Y-108783557D01*
X123248373Y-108732037D01*
X123314558Y-108725518D01*
X123380740Y-108719000D01*
X123469260Y-108719000D01*
X123535442Y-108725518D01*
X123535442Y-108725518D01*
G37*
G36*
X120995442Y-108725518D02*
G01*
X121061627Y-108732037D01*
X121231466Y-108783557D01*
X121387991Y-108867222D01*
X121423729Y-108896552D01*
X121525186Y-108979814D01*
X121608448Y-109081271D01*
X121637778Y-109117009D01*
X121721443Y-109273534D01*
X121772963Y-109443373D01*
X121790359Y-109620000D01*
X121772963Y-109796627D01*
X121721443Y-109966466D01*
X121637778Y-110122991D01*
X121608448Y-110158729D01*
X121525186Y-110260186D01*
X121423729Y-110343448D01*
X121387991Y-110372778D01*
X121231466Y-110456443D01*
X121061627Y-110507963D01*
X120995442Y-110514482D01*
X120929260Y-110521000D01*
X120840740Y-110521000D01*
X120774558Y-110514482D01*
X120708373Y-110507963D01*
X120538534Y-110456443D01*
X120382009Y-110372778D01*
X120346271Y-110343448D01*
X120244814Y-110260186D01*
X120161552Y-110158729D01*
X120132222Y-110122991D01*
X120048557Y-109966466D01*
X119997037Y-109796627D01*
X119979641Y-109620000D01*
X119997037Y-109443373D01*
X120048557Y-109273534D01*
X120132222Y-109117009D01*
X120161552Y-109081271D01*
X120244814Y-108979814D01*
X120346271Y-108896552D01*
X120382009Y-108867222D01*
X120538534Y-108783557D01*
X120708373Y-108732037D01*
X120774558Y-108725518D01*
X120840740Y-108719000D01*
X120929260Y-108719000D01*
X120995442Y-108725518D01*
X120995442Y-108725518D01*
G37*
G36*
X118455442Y-108725518D02*
G01*
X118521627Y-108732037D01*
X118691466Y-108783557D01*
X118847991Y-108867222D01*
X118883729Y-108896552D01*
X118985186Y-108979814D01*
X119068448Y-109081271D01*
X119097778Y-109117009D01*
X119181443Y-109273534D01*
X119232963Y-109443373D01*
X119250359Y-109620000D01*
X119232963Y-109796627D01*
X119181443Y-109966466D01*
X119097778Y-110122991D01*
X119068448Y-110158729D01*
X118985186Y-110260186D01*
X118883729Y-110343448D01*
X118847991Y-110372778D01*
X118691466Y-110456443D01*
X118521627Y-110507963D01*
X118455442Y-110514482D01*
X118389260Y-110521000D01*
X118300740Y-110521000D01*
X118234558Y-110514482D01*
X118168373Y-110507963D01*
X117998534Y-110456443D01*
X117842009Y-110372778D01*
X117806271Y-110343448D01*
X117704814Y-110260186D01*
X117621552Y-110158729D01*
X117592222Y-110122991D01*
X117508557Y-109966466D01*
X117457037Y-109796627D01*
X117439641Y-109620000D01*
X117457037Y-109443373D01*
X117508557Y-109273534D01*
X117592222Y-109117009D01*
X117621552Y-109081271D01*
X117704814Y-108979814D01*
X117806271Y-108896552D01*
X117842009Y-108867222D01*
X117998534Y-108783557D01*
X118168373Y-108732037D01*
X118234558Y-108725518D01*
X118300740Y-108719000D01*
X118389260Y-108719000D01*
X118455442Y-108725518D01*
X118455442Y-108725518D01*
G37*
G36*
X119246000Y-107981000D02*
G01*
X117444000Y-107981000D01*
X117444000Y-106179000D01*
X119246000Y-106179000D01*
X119246000Y-107981000D01*
X119246000Y-107981000D01*
G37*
G36*
X123535443Y-106185519D02*
G01*
X123601627Y-106192037D01*
X123771466Y-106243557D01*
X123927991Y-106327222D01*
X123963729Y-106356552D01*
X124065186Y-106439814D01*
X124148448Y-106541271D01*
X124177778Y-106577009D01*
X124261443Y-106733534D01*
X124312963Y-106903373D01*
X124330359Y-107080000D01*
X124312963Y-107256627D01*
X124261443Y-107426466D01*
X124177778Y-107582991D01*
X124148448Y-107618729D01*
X124065186Y-107720186D01*
X123963729Y-107803448D01*
X123927991Y-107832778D01*
X123771466Y-107916443D01*
X123601627Y-107967963D01*
X123535443Y-107974481D01*
X123469260Y-107981000D01*
X123380740Y-107981000D01*
X123314557Y-107974481D01*
X123248373Y-107967963D01*
X123078534Y-107916443D01*
X122922009Y-107832778D01*
X122886271Y-107803448D01*
X122784814Y-107720186D01*
X122701552Y-107618729D01*
X122672222Y-107582991D01*
X122588557Y-107426466D01*
X122537037Y-107256627D01*
X122519641Y-107080000D01*
X122537037Y-106903373D01*
X122588557Y-106733534D01*
X122672222Y-106577009D01*
X122701552Y-106541271D01*
X122784814Y-106439814D01*
X122886271Y-106356552D01*
X122922009Y-106327222D01*
X123078534Y-106243557D01*
X123248373Y-106192037D01*
X123314557Y-106185519D01*
X123380740Y-106179000D01*
X123469260Y-106179000D01*
X123535443Y-106185519D01*
X123535443Y-106185519D01*
G37*
G36*
X120995443Y-106185519D02*
G01*
X121061627Y-106192037D01*
X121231466Y-106243557D01*
X121387991Y-106327222D01*
X121423729Y-106356552D01*
X121525186Y-106439814D01*
X121608448Y-106541271D01*
X121637778Y-106577009D01*
X121721443Y-106733534D01*
X121772963Y-106903373D01*
X121790359Y-107080000D01*
X121772963Y-107256627D01*
X121721443Y-107426466D01*
X121637778Y-107582991D01*
X121608448Y-107618729D01*
X121525186Y-107720186D01*
X121423729Y-107803448D01*
X121387991Y-107832778D01*
X121231466Y-107916443D01*
X121061627Y-107967963D01*
X120995443Y-107974481D01*
X120929260Y-107981000D01*
X120840740Y-107981000D01*
X120774557Y-107974481D01*
X120708373Y-107967963D01*
X120538534Y-107916443D01*
X120382009Y-107832778D01*
X120346271Y-107803448D01*
X120244814Y-107720186D01*
X120161552Y-107618729D01*
X120132222Y-107582991D01*
X120048557Y-107426466D01*
X119997037Y-107256627D01*
X119979641Y-107080000D01*
X119997037Y-106903373D01*
X120048557Y-106733534D01*
X120132222Y-106577009D01*
X120161552Y-106541271D01*
X120244814Y-106439814D01*
X120346271Y-106356552D01*
X120382009Y-106327222D01*
X120538534Y-106243557D01*
X120708373Y-106192037D01*
X120774557Y-106185519D01*
X120840740Y-106179000D01*
X120929260Y-106179000D01*
X120995443Y-106185519D01*
X120995443Y-106185519D01*
G37*
G36*
X145568000Y-88983000D02*
G01*
X143942000Y-88983000D01*
X143942000Y-87357000D01*
X145568000Y-87357000D01*
X145568000Y-88983000D01*
X145568000Y-88983000D01*
G37*
G36*
X147532142Y-87388242D02*
G01*
X147680101Y-87449529D01*
X147813255Y-87538499D01*
X147926501Y-87651745D01*
X148015471Y-87784899D01*
X148076758Y-87932858D01*
X148108000Y-88089925D01*
X148108000Y-88250075D01*
X148076758Y-88407142D01*
X148015471Y-88555101D01*
X147926501Y-88688255D01*
X147813255Y-88801501D01*
X147680101Y-88890471D01*
X147532142Y-88951758D01*
X147375075Y-88983000D01*
X147214925Y-88983000D01*
X147057858Y-88951758D01*
X146909899Y-88890471D01*
X146776745Y-88801501D01*
X146663499Y-88688255D01*
X146574529Y-88555101D01*
X146513242Y-88407142D01*
X146482000Y-88250075D01*
X146482000Y-88089925D01*
X146513242Y-87932858D01*
X146574529Y-87784899D01*
X146663499Y-87651745D01*
X146776745Y-87538499D01*
X146909899Y-87449529D01*
X147057858Y-87388242D01*
X147214925Y-87357000D01*
X147375075Y-87357000D01*
X147532142Y-87388242D01*
X147532142Y-87388242D01*
G37*
G36*
X150072142Y-87388242D02*
G01*
X150220101Y-87449529D01*
X150353255Y-87538499D01*
X150466501Y-87651745D01*
X150555471Y-87784899D01*
X150616758Y-87932858D01*
X150648000Y-88089925D01*
X150648000Y-88250075D01*
X150616758Y-88407142D01*
X150555471Y-88555101D01*
X150466501Y-88688255D01*
X150353255Y-88801501D01*
X150220101Y-88890471D01*
X150072142Y-88951758D01*
X149915075Y-88983000D01*
X149754925Y-88983000D01*
X149597858Y-88951758D01*
X149449899Y-88890471D01*
X149316745Y-88801501D01*
X149203499Y-88688255D01*
X149114529Y-88555101D01*
X149053242Y-88407142D01*
X149022000Y-88250075D01*
X149022000Y-88089925D01*
X149053242Y-87932858D01*
X149114529Y-87784899D01*
X149203499Y-87651745D01*
X149316745Y-87538499D01*
X149449899Y-87449529D01*
X149597858Y-87388242D01*
X149754925Y-87357000D01*
X149915075Y-87357000D01*
X150072142Y-87388242D01*
X150072142Y-87388242D01*
G37*
G36*
X152612142Y-87388242D02*
G01*
X152760101Y-87449529D01*
X152893255Y-87538499D01*
X153006501Y-87651745D01*
X153095471Y-87784899D01*
X153156758Y-87932858D01*
X153188000Y-88089925D01*
X153188000Y-88250075D01*
X153156758Y-88407142D01*
X153095471Y-88555101D01*
X153006501Y-88688255D01*
X152893255Y-88801501D01*
X152760101Y-88890471D01*
X152612142Y-88951758D01*
X152455075Y-88983000D01*
X152294925Y-88983000D01*
X152137858Y-88951758D01*
X151989899Y-88890471D01*
X151856745Y-88801501D01*
X151743499Y-88688255D01*
X151654529Y-88555101D01*
X151593242Y-88407142D01*
X151562000Y-88250075D01*
X151562000Y-88089925D01*
X151593242Y-87932858D01*
X151654529Y-87784899D01*
X151743499Y-87651745D01*
X151856745Y-87538499D01*
X151989899Y-87449529D01*
X152137858Y-87388242D01*
X152294925Y-87357000D01*
X152455075Y-87357000D01*
X152612142Y-87388242D01*
X152612142Y-87388242D01*
G37*
G36*
X148732022Y-72060590D02*
G01*
X148832681Y-72091125D01*
X148883012Y-72106392D01*
X149022164Y-72180771D01*
X149144133Y-72280867D01*
X149244229Y-72402835D01*
X149318608Y-72541987D01*
X149333875Y-72592318D01*
X149364410Y-72692977D01*
X149376000Y-72810655D01*
X149376000Y-76389345D01*
X149364410Y-76507023D01*
X149333875Y-76607682D01*
X149318608Y-76658013D01*
X149244229Y-76797165D01*
X149144133Y-76919133D01*
X149022165Y-77019229D01*
X148883013Y-77093608D01*
X148832682Y-77108875D01*
X148732023Y-77139410D01*
X148575000Y-77154875D01*
X148417978Y-77139410D01*
X148317319Y-77108875D01*
X148266988Y-77093608D01*
X148127836Y-77019229D01*
X148005868Y-76919133D01*
X147905772Y-76797165D01*
X147831393Y-76658013D01*
X147816126Y-76607682D01*
X147785591Y-76507023D01*
X147774001Y-76389345D01*
X147774000Y-72810656D01*
X147785590Y-72692978D01*
X147831392Y-72541989D01*
X147831392Y-72541988D01*
X147905771Y-72402836D01*
X147905772Y-72402835D01*
X148005867Y-72280867D01*
X148127835Y-72180771D01*
X148266987Y-72106392D01*
X148317318Y-72091125D01*
X148417977Y-72060590D01*
X148575000Y-72045125D01*
X148732022Y-72060590D01*
X148732022Y-72060590D01*
G37*
G36*
X151272022Y-72060590D02*
G01*
X151372681Y-72091125D01*
X151423012Y-72106392D01*
X151562164Y-72180771D01*
X151684133Y-72280867D01*
X151784229Y-72402835D01*
X151858608Y-72541987D01*
X151873875Y-72592318D01*
X151904410Y-72692977D01*
X151916000Y-72810655D01*
X151916000Y-76389345D01*
X151904410Y-76507023D01*
X151873875Y-76607682D01*
X151858608Y-76658013D01*
X151784229Y-76797165D01*
X151684133Y-76919133D01*
X151562165Y-77019229D01*
X151423013Y-77093608D01*
X151372682Y-77108875D01*
X151272023Y-77139410D01*
X151115000Y-77154875D01*
X150957978Y-77139410D01*
X150857319Y-77108875D01*
X150806988Y-77093608D01*
X150667836Y-77019229D01*
X150545868Y-76919133D01*
X150445772Y-76797165D01*
X150371393Y-76658013D01*
X150356126Y-76607682D01*
X150325591Y-76507023D01*
X150314001Y-76389345D01*
X150314000Y-72810656D01*
X150325590Y-72692978D01*
X150371392Y-72541989D01*
X150371392Y-72541988D01*
X150445771Y-72402836D01*
X150445772Y-72402835D01*
X150545867Y-72280867D01*
X150667835Y-72180771D01*
X150806987Y-72106392D01*
X150857318Y-72091125D01*
X150957977Y-72060590D01*
X151115000Y-72045125D01*
X151272022Y-72060590D01*
X151272022Y-72060590D01*
G37*
G36*
X146836000Y-77151000D02*
G01*
X145234000Y-77151000D01*
X145234000Y-72049000D01*
X146836000Y-72049000D01*
X146836000Y-77151000D01*
X146836000Y-77151000D01*
G37*
M02*
