G04 #@! TF.GenerationSoftware,KiCad,Pcbnew,(5.1.2-1)-1*
G04 #@! TF.CreationDate,2019-07-21T21:36:06+01:00*
G04 #@! TF.ProjectId,glowy_nfc_reader_module,676c6f77-795f-46e6-9663-5f7265616465,rev?*
G04 #@! TF.SameCoordinates,Original*
G04 #@! TF.FileFunction,Soldermask,Top*
G04 #@! TF.FilePolarity,Negative*
%FSLAX46Y46*%
G04 Gerber Fmt 4.6, Leading zero omitted, Abs format (unit mm)*
G04 Created by KiCad (PCBNEW (5.1.2-1)-1) date 2019-07-21 21:36:06*
%MOMM*%
%LPD*%
G04 APERTURE LIST*
%ADD10C,0.100000*%
G04 APERTURE END LIST*
D10*
G36*
X147442022Y-131840590D02*
G01*
X147542681Y-131871125D01*
X147593012Y-131886392D01*
X147732164Y-131960771D01*
X147854133Y-132060867D01*
X147954229Y-132182835D01*
X148028608Y-132321987D01*
X148043875Y-132372318D01*
X148074410Y-132472977D01*
X148086000Y-132590655D01*
X148086000Y-136169345D01*
X148074410Y-136287023D01*
X148043875Y-136387682D01*
X148028608Y-136438013D01*
X147954229Y-136577165D01*
X147854133Y-136699133D01*
X147732165Y-136799229D01*
X147593013Y-136873608D01*
X147542682Y-136888875D01*
X147442023Y-136919410D01*
X147285000Y-136934875D01*
X147127978Y-136919410D01*
X147027319Y-136888875D01*
X146976988Y-136873608D01*
X146837836Y-136799229D01*
X146715868Y-136699133D01*
X146615772Y-136577165D01*
X146541393Y-136438013D01*
X146526126Y-136387682D01*
X146495591Y-136287023D01*
X146484001Y-136169345D01*
X146484000Y-132590656D01*
X146495590Y-132472978D01*
X146541392Y-132321989D01*
X146541392Y-132321988D01*
X146615771Y-132182836D01*
X146615772Y-132182835D01*
X146715867Y-132060867D01*
X146837835Y-131960771D01*
X146976987Y-131886392D01*
X147027318Y-131871125D01*
X147127977Y-131840590D01*
X147285000Y-131825125D01*
X147442022Y-131840590D01*
X147442022Y-131840590D01*
G37*
G36*
X149982022Y-131840590D02*
G01*
X150082681Y-131871125D01*
X150133012Y-131886392D01*
X150272164Y-131960771D01*
X150394133Y-132060867D01*
X150494229Y-132182835D01*
X150568608Y-132321987D01*
X150583875Y-132372318D01*
X150614410Y-132472977D01*
X150626000Y-132590655D01*
X150626000Y-136169345D01*
X150614410Y-136287023D01*
X150583875Y-136387682D01*
X150568608Y-136438013D01*
X150494229Y-136577165D01*
X150394133Y-136699133D01*
X150272165Y-136799229D01*
X150133013Y-136873608D01*
X150082682Y-136888875D01*
X149982023Y-136919410D01*
X149825000Y-136934875D01*
X149667978Y-136919410D01*
X149567319Y-136888875D01*
X149516988Y-136873608D01*
X149377836Y-136799229D01*
X149255868Y-136699133D01*
X149155772Y-136577165D01*
X149081393Y-136438013D01*
X149066126Y-136387682D01*
X149035591Y-136287023D01*
X149024001Y-136169345D01*
X149024000Y-132590656D01*
X149035590Y-132472978D01*
X149081392Y-132321989D01*
X149081392Y-132321988D01*
X149155771Y-132182836D01*
X149155772Y-132182835D01*
X149255867Y-132060867D01*
X149377835Y-131960771D01*
X149516987Y-131886392D01*
X149567318Y-131871125D01*
X149667977Y-131840590D01*
X149825000Y-131825125D01*
X149982022Y-131840590D01*
X149982022Y-131840590D01*
G37*
G36*
X152522022Y-131840590D02*
G01*
X152622681Y-131871125D01*
X152673012Y-131886392D01*
X152812164Y-131960771D01*
X152934133Y-132060867D01*
X153034229Y-132182835D01*
X153108608Y-132321987D01*
X153123875Y-132372318D01*
X153154410Y-132472977D01*
X153166000Y-132590655D01*
X153166000Y-136169345D01*
X153154410Y-136287023D01*
X153123875Y-136387682D01*
X153108608Y-136438013D01*
X153034229Y-136577165D01*
X152934133Y-136699133D01*
X152812165Y-136799229D01*
X152673013Y-136873608D01*
X152622682Y-136888875D01*
X152522023Y-136919410D01*
X152365000Y-136934875D01*
X152207978Y-136919410D01*
X152107319Y-136888875D01*
X152056988Y-136873608D01*
X151917836Y-136799229D01*
X151795868Y-136699133D01*
X151695772Y-136577165D01*
X151621393Y-136438013D01*
X151606126Y-136387682D01*
X151575591Y-136287023D01*
X151564001Y-136169345D01*
X151564000Y-132590656D01*
X151575590Y-132472978D01*
X151621392Y-132321989D01*
X151621392Y-132321988D01*
X151695771Y-132182836D01*
X151695772Y-132182835D01*
X151795867Y-132060867D01*
X151917835Y-131960771D01*
X152056987Y-131886392D01*
X152107318Y-131871125D01*
X152207977Y-131840590D01*
X152365000Y-131825125D01*
X152522022Y-131840590D01*
X152522022Y-131840590D01*
G37*
G36*
X145546000Y-136931000D02*
G01*
X143944000Y-136931000D01*
X143944000Y-131829000D01*
X145546000Y-131829000D01*
X145546000Y-136931000D01*
X145546000Y-136931000D01*
G37*
G36*
X146876968Y-127543565D02*
G01*
X146915638Y-127555296D01*
X146951277Y-127574346D01*
X146982517Y-127599983D01*
X147008154Y-127631223D01*
X147027204Y-127666862D01*
X147038935Y-127705532D01*
X147043500Y-127751888D01*
X147043500Y-128828112D01*
X147038935Y-128874468D01*
X147027204Y-128913138D01*
X147008154Y-128948777D01*
X146982517Y-128980017D01*
X146951277Y-129005654D01*
X146915638Y-129024704D01*
X146876968Y-129036435D01*
X146830612Y-129041000D01*
X146179388Y-129041000D01*
X146133032Y-129036435D01*
X146094362Y-129024704D01*
X146058723Y-129005654D01*
X146027483Y-128980017D01*
X146001846Y-128948777D01*
X145982796Y-128913138D01*
X145971065Y-128874468D01*
X145966500Y-128828112D01*
X145966500Y-127751888D01*
X145971065Y-127705532D01*
X145982796Y-127666862D01*
X146001846Y-127631223D01*
X146027483Y-127599983D01*
X146058723Y-127574346D01*
X146094362Y-127555296D01*
X146133032Y-127543565D01*
X146179388Y-127539000D01*
X146830612Y-127539000D01*
X146876968Y-127543565D01*
X146876968Y-127543565D01*
G37*
G36*
X145001968Y-127543565D02*
G01*
X145040638Y-127555296D01*
X145076277Y-127574346D01*
X145107517Y-127599983D01*
X145133154Y-127631223D01*
X145152204Y-127666862D01*
X145163935Y-127705532D01*
X145168500Y-127751888D01*
X145168500Y-128828112D01*
X145163935Y-128874468D01*
X145152204Y-128913138D01*
X145133154Y-128948777D01*
X145107517Y-128980017D01*
X145076277Y-129005654D01*
X145040638Y-129024704D01*
X145001968Y-129036435D01*
X144955612Y-129041000D01*
X144304388Y-129041000D01*
X144258032Y-129036435D01*
X144219362Y-129024704D01*
X144183723Y-129005654D01*
X144152483Y-128980017D01*
X144126846Y-128948777D01*
X144107796Y-128913138D01*
X144096065Y-128874468D01*
X144091500Y-128828112D01*
X144091500Y-127751888D01*
X144096065Y-127705532D01*
X144107796Y-127666862D01*
X144126846Y-127631223D01*
X144152483Y-127599983D01*
X144183723Y-127574346D01*
X144219362Y-127555296D01*
X144258032Y-127543565D01*
X144304388Y-127539000D01*
X144955612Y-127539000D01*
X145001968Y-127543565D01*
X145001968Y-127543565D01*
G37*
G36*
X145857585Y-122858802D02*
G01*
X146007410Y-122888604D01*
X146289674Y-123005521D01*
X146543705Y-123175259D01*
X146759741Y-123391295D01*
X146929479Y-123645326D01*
X147046396Y-123927590D01*
X147106000Y-124227240D01*
X147106000Y-124532760D01*
X147046396Y-124832410D01*
X146929479Y-125114674D01*
X146759741Y-125368705D01*
X146543705Y-125584741D01*
X146289674Y-125754479D01*
X146007410Y-125871396D01*
X145857585Y-125901198D01*
X145707761Y-125931000D01*
X145402239Y-125931000D01*
X145252415Y-125901198D01*
X145102590Y-125871396D01*
X144820326Y-125754479D01*
X144566295Y-125584741D01*
X144350259Y-125368705D01*
X144180521Y-125114674D01*
X144063604Y-124832410D01*
X144004000Y-124532760D01*
X144004000Y-124227240D01*
X144063604Y-123927590D01*
X144180521Y-123645326D01*
X144350259Y-123391295D01*
X144566295Y-123175259D01*
X144820326Y-123005521D01*
X145102590Y-122888604D01*
X145252415Y-122858802D01*
X145402239Y-122829000D01*
X145707761Y-122829000D01*
X145857585Y-122858802D01*
X145857585Y-122858802D01*
G37*
G36*
X151857585Y-122858802D02*
G01*
X152007410Y-122888604D01*
X152289674Y-123005521D01*
X152543705Y-123175259D01*
X152759741Y-123391295D01*
X152929479Y-123645326D01*
X153046396Y-123927590D01*
X153106000Y-124227240D01*
X153106000Y-124532760D01*
X153046396Y-124832410D01*
X152929479Y-125114674D01*
X152759741Y-125368705D01*
X152543705Y-125584741D01*
X152289674Y-125754479D01*
X152007410Y-125871396D01*
X151857585Y-125901198D01*
X151707761Y-125931000D01*
X151402239Y-125931000D01*
X151252415Y-125901198D01*
X151102590Y-125871396D01*
X150820326Y-125754479D01*
X150566295Y-125584741D01*
X150350259Y-125368705D01*
X150180521Y-125114674D01*
X150063604Y-124832410D01*
X150004000Y-124532760D01*
X150004000Y-124227240D01*
X150063604Y-123927590D01*
X150180521Y-123645326D01*
X150350259Y-123391295D01*
X150566295Y-123175259D01*
X150820326Y-123005521D01*
X151102590Y-122888604D01*
X151252415Y-122858802D01*
X151402239Y-122829000D01*
X151707761Y-122829000D01*
X151857585Y-122858802D01*
X151857585Y-122858802D01*
G37*
G36*
X120562091Y-113388085D02*
G01*
X120596069Y-113398393D01*
X120627390Y-113415134D01*
X120654839Y-113437661D01*
X120677366Y-113465110D01*
X120694107Y-113496431D01*
X120704415Y-113530409D01*
X120708500Y-113571890D01*
X120708500Y-114248110D01*
X120704415Y-114289591D01*
X120694107Y-114323569D01*
X120677366Y-114354890D01*
X120654839Y-114382339D01*
X120627390Y-114404866D01*
X120596069Y-114421607D01*
X120562091Y-114431915D01*
X120520610Y-114436000D01*
X119919390Y-114436000D01*
X119877909Y-114431915D01*
X119843931Y-114421607D01*
X119812610Y-114404866D01*
X119785161Y-114382339D01*
X119762634Y-114354890D01*
X119745893Y-114323569D01*
X119735585Y-114289591D01*
X119731500Y-114248110D01*
X119731500Y-113571890D01*
X119735585Y-113530409D01*
X119745893Y-113496431D01*
X119762634Y-113465110D01*
X119785161Y-113437661D01*
X119812610Y-113415134D01*
X119843931Y-113398393D01*
X119877909Y-113388085D01*
X119919390Y-113384000D01*
X120520610Y-113384000D01*
X120562091Y-113388085D01*
X120562091Y-113388085D01*
G37*
G36*
X122137091Y-113388085D02*
G01*
X122171069Y-113398393D01*
X122202390Y-113415134D01*
X122229839Y-113437661D01*
X122252366Y-113465110D01*
X122269107Y-113496431D01*
X122279415Y-113530409D01*
X122283500Y-113571890D01*
X122283500Y-114248110D01*
X122279415Y-114289591D01*
X122269107Y-114323569D01*
X122252366Y-114354890D01*
X122229839Y-114382339D01*
X122202390Y-114404866D01*
X122171069Y-114421607D01*
X122137091Y-114431915D01*
X122095610Y-114436000D01*
X121494390Y-114436000D01*
X121452909Y-114431915D01*
X121418931Y-114421607D01*
X121387610Y-114404866D01*
X121360161Y-114382339D01*
X121337634Y-114354890D01*
X121320893Y-114323569D01*
X121310585Y-114289591D01*
X121306500Y-114248110D01*
X121306500Y-113571890D01*
X121310585Y-113530409D01*
X121320893Y-113496431D01*
X121337634Y-113465110D01*
X121360161Y-113437661D01*
X121387610Y-113415134D01*
X121418931Y-113398393D01*
X121452909Y-113388085D01*
X121494390Y-113384000D01*
X122095610Y-113384000D01*
X122137091Y-113388085D01*
X122137091Y-113388085D01*
G37*
G36*
X120995442Y-108725518D02*
G01*
X121061627Y-108732037D01*
X121231466Y-108783557D01*
X121387991Y-108867222D01*
X121423729Y-108896552D01*
X121525186Y-108979814D01*
X121608448Y-109081271D01*
X121637778Y-109117009D01*
X121721443Y-109273534D01*
X121772963Y-109443373D01*
X121790359Y-109620000D01*
X121772963Y-109796627D01*
X121721443Y-109966466D01*
X121637778Y-110122991D01*
X121608448Y-110158729D01*
X121525186Y-110260186D01*
X121423729Y-110343448D01*
X121387991Y-110372778D01*
X121231466Y-110456443D01*
X121061627Y-110507963D01*
X120995442Y-110514482D01*
X120929260Y-110521000D01*
X120840740Y-110521000D01*
X120774558Y-110514482D01*
X120708373Y-110507963D01*
X120538534Y-110456443D01*
X120382009Y-110372778D01*
X120346271Y-110343448D01*
X120244814Y-110260186D01*
X120161552Y-110158729D01*
X120132222Y-110122991D01*
X120048557Y-109966466D01*
X119997037Y-109796627D01*
X119979641Y-109620000D01*
X119997037Y-109443373D01*
X120048557Y-109273534D01*
X120132222Y-109117009D01*
X120161552Y-109081271D01*
X120244814Y-108979814D01*
X120346271Y-108896552D01*
X120382009Y-108867222D01*
X120538534Y-108783557D01*
X120708373Y-108732037D01*
X120774558Y-108725518D01*
X120840740Y-108719000D01*
X120929260Y-108719000D01*
X120995442Y-108725518D01*
X120995442Y-108725518D01*
G37*
G36*
X123535442Y-108725518D02*
G01*
X123601627Y-108732037D01*
X123771466Y-108783557D01*
X123927991Y-108867222D01*
X123963729Y-108896552D01*
X124065186Y-108979814D01*
X124148448Y-109081271D01*
X124177778Y-109117009D01*
X124261443Y-109273534D01*
X124312963Y-109443373D01*
X124330359Y-109620000D01*
X124312963Y-109796627D01*
X124261443Y-109966466D01*
X124177778Y-110122991D01*
X124148448Y-110158729D01*
X124065186Y-110260186D01*
X123963729Y-110343448D01*
X123927991Y-110372778D01*
X123771466Y-110456443D01*
X123601627Y-110507963D01*
X123535442Y-110514482D01*
X123469260Y-110521000D01*
X123380740Y-110521000D01*
X123314558Y-110514482D01*
X123248373Y-110507963D01*
X123078534Y-110456443D01*
X122922009Y-110372778D01*
X122886271Y-110343448D01*
X122784814Y-110260186D01*
X122701552Y-110158729D01*
X122672222Y-110122991D01*
X122588557Y-109966466D01*
X122537037Y-109796627D01*
X122519641Y-109620000D01*
X122537037Y-109443373D01*
X122588557Y-109273534D01*
X122672222Y-109117009D01*
X122701552Y-109081271D01*
X122784814Y-108979814D01*
X122886271Y-108896552D01*
X122922009Y-108867222D01*
X123078534Y-108783557D01*
X123248373Y-108732037D01*
X123314558Y-108725518D01*
X123380740Y-108719000D01*
X123469260Y-108719000D01*
X123535442Y-108725518D01*
X123535442Y-108725518D01*
G37*
G36*
X118455442Y-108725518D02*
G01*
X118521627Y-108732037D01*
X118691466Y-108783557D01*
X118847991Y-108867222D01*
X118883729Y-108896552D01*
X118985186Y-108979814D01*
X119068448Y-109081271D01*
X119097778Y-109117009D01*
X119181443Y-109273534D01*
X119232963Y-109443373D01*
X119250359Y-109620000D01*
X119232963Y-109796627D01*
X119181443Y-109966466D01*
X119097778Y-110122991D01*
X119068448Y-110158729D01*
X118985186Y-110260186D01*
X118883729Y-110343448D01*
X118847991Y-110372778D01*
X118691466Y-110456443D01*
X118521627Y-110507963D01*
X118455442Y-110514482D01*
X118389260Y-110521000D01*
X118300740Y-110521000D01*
X118234558Y-110514482D01*
X118168373Y-110507963D01*
X117998534Y-110456443D01*
X117842009Y-110372778D01*
X117806271Y-110343448D01*
X117704814Y-110260186D01*
X117621552Y-110158729D01*
X117592222Y-110122991D01*
X117508557Y-109966466D01*
X117457037Y-109796627D01*
X117439641Y-109620000D01*
X117457037Y-109443373D01*
X117508557Y-109273534D01*
X117592222Y-109117009D01*
X117621552Y-109081271D01*
X117704814Y-108979814D01*
X117806271Y-108896552D01*
X117842009Y-108867222D01*
X117998534Y-108783557D01*
X118168373Y-108732037D01*
X118234558Y-108725518D01*
X118300740Y-108719000D01*
X118389260Y-108719000D01*
X118455442Y-108725518D01*
X118455442Y-108725518D01*
G37*
G36*
X178236000Y-108961000D02*
G01*
X174734000Y-108961000D01*
X174734000Y-107559000D01*
X178236000Y-107559000D01*
X178236000Y-108961000D01*
X178236000Y-108961000D01*
G37*
G36*
X119246000Y-107981000D02*
G01*
X117444000Y-107981000D01*
X117444000Y-106179000D01*
X119246000Y-106179000D01*
X119246000Y-107981000D01*
X119246000Y-107981000D01*
G37*
G36*
X120995443Y-106185519D02*
G01*
X121061627Y-106192037D01*
X121231466Y-106243557D01*
X121387991Y-106327222D01*
X121423729Y-106356552D01*
X121525186Y-106439814D01*
X121608448Y-106541271D01*
X121637778Y-106577009D01*
X121721443Y-106733534D01*
X121772963Y-106903373D01*
X121790359Y-107080000D01*
X121772963Y-107256627D01*
X121721443Y-107426466D01*
X121637778Y-107582991D01*
X121608448Y-107618729D01*
X121525186Y-107720186D01*
X121423729Y-107803448D01*
X121387991Y-107832778D01*
X121231466Y-107916443D01*
X121061627Y-107967963D01*
X120995443Y-107974481D01*
X120929260Y-107981000D01*
X120840740Y-107981000D01*
X120774557Y-107974481D01*
X120708373Y-107967963D01*
X120538534Y-107916443D01*
X120382009Y-107832778D01*
X120346271Y-107803448D01*
X120244814Y-107720186D01*
X120161552Y-107618729D01*
X120132222Y-107582991D01*
X120048557Y-107426466D01*
X119997037Y-107256627D01*
X119979641Y-107080000D01*
X119997037Y-106903373D01*
X120048557Y-106733534D01*
X120132222Y-106577009D01*
X120161552Y-106541271D01*
X120244814Y-106439814D01*
X120346271Y-106356552D01*
X120382009Y-106327222D01*
X120538534Y-106243557D01*
X120708373Y-106192037D01*
X120774557Y-106185519D01*
X120840740Y-106179000D01*
X120929260Y-106179000D01*
X120995443Y-106185519D01*
X120995443Y-106185519D01*
G37*
G36*
X123535443Y-106185519D02*
G01*
X123601627Y-106192037D01*
X123771466Y-106243557D01*
X123927991Y-106327222D01*
X123963729Y-106356552D01*
X124065186Y-106439814D01*
X124148448Y-106541271D01*
X124177778Y-106577009D01*
X124261443Y-106733534D01*
X124312963Y-106903373D01*
X124330359Y-107080000D01*
X124312963Y-107256627D01*
X124261443Y-107426466D01*
X124177778Y-107582991D01*
X124148448Y-107618729D01*
X124065186Y-107720186D01*
X123963729Y-107803448D01*
X123927991Y-107832778D01*
X123771466Y-107916443D01*
X123601627Y-107967963D01*
X123535443Y-107974481D01*
X123469260Y-107981000D01*
X123380740Y-107981000D01*
X123314557Y-107974481D01*
X123248373Y-107967963D01*
X123078534Y-107916443D01*
X122922009Y-107832778D01*
X122886271Y-107803448D01*
X122784814Y-107720186D01*
X122701552Y-107618729D01*
X122672222Y-107582991D01*
X122588557Y-107426466D01*
X122537037Y-107256627D01*
X122519641Y-107080000D01*
X122537037Y-106903373D01*
X122588557Y-106733534D01*
X122672222Y-106577009D01*
X122701552Y-106541271D01*
X122784814Y-106439814D01*
X122886271Y-106356552D01*
X122922009Y-106327222D01*
X123078534Y-106243557D01*
X123248373Y-106192037D01*
X123314557Y-106185519D01*
X123380740Y-106179000D01*
X123469260Y-106179000D01*
X123535443Y-106185519D01*
X123535443Y-106185519D01*
G37*
G36*
X125526000Y-102356000D02*
G01*
X123724000Y-102356000D01*
X123724000Y-101604000D01*
X125526000Y-101604000D01*
X125526000Y-102356000D01*
X125526000Y-102356000D01*
G37*
G36*
X118226000Y-102356000D02*
G01*
X116424000Y-102356000D01*
X116424000Y-101604000D01*
X118226000Y-101604000D01*
X118226000Y-102356000D01*
X118226000Y-102356000D01*
G37*
G36*
X125526000Y-101086000D02*
G01*
X123724000Y-101086000D01*
X123724000Y-100334000D01*
X125526000Y-100334000D01*
X125526000Y-101086000D01*
X125526000Y-101086000D01*
G37*
G36*
X118226000Y-101086000D02*
G01*
X116424000Y-101086000D01*
X116424000Y-100334000D01*
X118226000Y-100334000D01*
X118226000Y-101086000D01*
X118226000Y-101086000D01*
G37*
G36*
X178236000Y-100261000D02*
G01*
X174734000Y-100261000D01*
X174734000Y-98859000D01*
X178236000Y-98859000D01*
X178236000Y-100261000D01*
X178236000Y-100261000D01*
G37*
G36*
X118226000Y-99816000D02*
G01*
X116424000Y-99816000D01*
X116424000Y-99064000D01*
X118226000Y-99064000D01*
X118226000Y-99816000D01*
X118226000Y-99816000D01*
G37*
G36*
X125526000Y-99816000D02*
G01*
X123724000Y-99816000D01*
X123724000Y-99064000D01*
X125526000Y-99064000D01*
X125526000Y-99816000D01*
X125526000Y-99816000D01*
G37*
G36*
X118226000Y-98546000D02*
G01*
X116424000Y-98546000D01*
X116424000Y-97794000D01*
X118226000Y-97794000D01*
X118226000Y-98546000D01*
X118226000Y-98546000D01*
G37*
G36*
X125526000Y-98546000D02*
G01*
X123724000Y-98546000D01*
X123724000Y-97794000D01*
X125526000Y-97794000D01*
X125526000Y-98546000D01*
X125526000Y-98546000D01*
G37*
G36*
X174527091Y-94928085D02*
G01*
X174561069Y-94938393D01*
X174592390Y-94955134D01*
X174619839Y-94977661D01*
X174642366Y-95005110D01*
X174659107Y-95036431D01*
X174669415Y-95070409D01*
X174673500Y-95111890D01*
X174673500Y-95788110D01*
X174669415Y-95829591D01*
X174659107Y-95863569D01*
X174642366Y-95894890D01*
X174619839Y-95922339D01*
X174592390Y-95944866D01*
X174561069Y-95961607D01*
X174527091Y-95971915D01*
X174485610Y-95976000D01*
X173884390Y-95976000D01*
X173842909Y-95971915D01*
X173808931Y-95961607D01*
X173777610Y-95944866D01*
X173750161Y-95922339D01*
X173727634Y-95894890D01*
X173710893Y-95863569D01*
X173700585Y-95829591D01*
X173696500Y-95788110D01*
X173696500Y-95111890D01*
X173700585Y-95070409D01*
X173710893Y-95036431D01*
X173727634Y-95005110D01*
X173750161Y-94977661D01*
X173777610Y-94955134D01*
X173808931Y-94938393D01*
X173842909Y-94928085D01*
X173884390Y-94924000D01*
X174485610Y-94924000D01*
X174527091Y-94928085D01*
X174527091Y-94928085D01*
G37*
G36*
X176102091Y-94928085D02*
G01*
X176136069Y-94938393D01*
X176167390Y-94955134D01*
X176194839Y-94977661D01*
X176217366Y-95005110D01*
X176234107Y-95036431D01*
X176244415Y-95070409D01*
X176248500Y-95111890D01*
X176248500Y-95788110D01*
X176244415Y-95829591D01*
X176234107Y-95863569D01*
X176217366Y-95894890D01*
X176194839Y-95922339D01*
X176167390Y-95944866D01*
X176136069Y-95961607D01*
X176102091Y-95971915D01*
X176060610Y-95976000D01*
X175459390Y-95976000D01*
X175417909Y-95971915D01*
X175383931Y-95961607D01*
X175352610Y-95944866D01*
X175325161Y-95922339D01*
X175302634Y-95894890D01*
X175285893Y-95863569D01*
X175275585Y-95829591D01*
X175271500Y-95788110D01*
X175271500Y-95111890D01*
X175275585Y-95070409D01*
X175285893Y-95036431D01*
X175302634Y-95005110D01*
X175325161Y-94977661D01*
X175352610Y-94955134D01*
X175383931Y-94938393D01*
X175417909Y-94928085D01*
X175459390Y-94924000D01*
X176060610Y-94924000D01*
X176102091Y-94928085D01*
X176102091Y-94928085D01*
G37*
G36*
X120584591Y-93558085D02*
G01*
X120618569Y-93568393D01*
X120649890Y-93585134D01*
X120677339Y-93607661D01*
X120699866Y-93635110D01*
X120716607Y-93666431D01*
X120726915Y-93700409D01*
X120731000Y-93741890D01*
X120731000Y-94418110D01*
X120726915Y-94459591D01*
X120716607Y-94493569D01*
X120699866Y-94524890D01*
X120677339Y-94552339D01*
X120649890Y-94574866D01*
X120618569Y-94591607D01*
X120584591Y-94601915D01*
X120543110Y-94606000D01*
X119941890Y-94606000D01*
X119900409Y-94601915D01*
X119866431Y-94591607D01*
X119835110Y-94574866D01*
X119807661Y-94552339D01*
X119785134Y-94524890D01*
X119768393Y-94493569D01*
X119758085Y-94459591D01*
X119754000Y-94418110D01*
X119754000Y-93741890D01*
X119758085Y-93700409D01*
X119768393Y-93666431D01*
X119785134Y-93635110D01*
X119807661Y-93607661D01*
X119835110Y-93585134D01*
X119866431Y-93568393D01*
X119900409Y-93558085D01*
X119941890Y-93554000D01*
X120543110Y-93554000D01*
X120584591Y-93558085D01*
X120584591Y-93558085D01*
G37*
G36*
X122159591Y-93558085D02*
G01*
X122193569Y-93568393D01*
X122224890Y-93585134D01*
X122252339Y-93607661D01*
X122274866Y-93635110D01*
X122291607Y-93666431D01*
X122301915Y-93700409D01*
X122306000Y-93741890D01*
X122306000Y-94418110D01*
X122301915Y-94459591D01*
X122291607Y-94493569D01*
X122274866Y-94524890D01*
X122252339Y-94552339D01*
X122224890Y-94574866D01*
X122193569Y-94591607D01*
X122159591Y-94601915D01*
X122118110Y-94606000D01*
X121516890Y-94606000D01*
X121475409Y-94601915D01*
X121441431Y-94591607D01*
X121410110Y-94574866D01*
X121382661Y-94552339D01*
X121360134Y-94524890D01*
X121343393Y-94493569D01*
X121333085Y-94459591D01*
X121329000Y-94418110D01*
X121329000Y-93741890D01*
X121333085Y-93700409D01*
X121343393Y-93666431D01*
X121360134Y-93635110D01*
X121382661Y-93607661D01*
X121410110Y-93585134D01*
X121441431Y-93568393D01*
X121475409Y-93558085D01*
X121516890Y-93554000D01*
X122118110Y-93554000D01*
X122159591Y-93558085D01*
X122159591Y-93558085D01*
G37*
G36*
X145568000Y-88983000D02*
G01*
X143942000Y-88983000D01*
X143942000Y-87357000D01*
X145568000Y-87357000D01*
X145568000Y-88983000D01*
X145568000Y-88983000D01*
G37*
G36*
X147532142Y-87388242D02*
G01*
X147680101Y-87449529D01*
X147813255Y-87538499D01*
X147926501Y-87651745D01*
X148015471Y-87784899D01*
X148076758Y-87932858D01*
X148108000Y-88089925D01*
X148108000Y-88250075D01*
X148076758Y-88407142D01*
X148015471Y-88555101D01*
X147926501Y-88688255D01*
X147813255Y-88801501D01*
X147680101Y-88890471D01*
X147532142Y-88951758D01*
X147375075Y-88983000D01*
X147214925Y-88983000D01*
X147057858Y-88951758D01*
X146909899Y-88890471D01*
X146776745Y-88801501D01*
X146663499Y-88688255D01*
X146574529Y-88555101D01*
X146513242Y-88407142D01*
X146482000Y-88250075D01*
X146482000Y-88089925D01*
X146513242Y-87932858D01*
X146574529Y-87784899D01*
X146663499Y-87651745D01*
X146776745Y-87538499D01*
X146909899Y-87449529D01*
X147057858Y-87388242D01*
X147214925Y-87357000D01*
X147375075Y-87357000D01*
X147532142Y-87388242D01*
X147532142Y-87388242D01*
G37*
G36*
X150072142Y-87388242D02*
G01*
X150220101Y-87449529D01*
X150353255Y-87538499D01*
X150466501Y-87651745D01*
X150555471Y-87784899D01*
X150616758Y-87932858D01*
X150648000Y-88089925D01*
X150648000Y-88250075D01*
X150616758Y-88407142D01*
X150555471Y-88555101D01*
X150466501Y-88688255D01*
X150353255Y-88801501D01*
X150220101Y-88890471D01*
X150072142Y-88951758D01*
X149915075Y-88983000D01*
X149754925Y-88983000D01*
X149597858Y-88951758D01*
X149449899Y-88890471D01*
X149316745Y-88801501D01*
X149203499Y-88688255D01*
X149114529Y-88555101D01*
X149053242Y-88407142D01*
X149022000Y-88250075D01*
X149022000Y-88089925D01*
X149053242Y-87932858D01*
X149114529Y-87784899D01*
X149203499Y-87651745D01*
X149316745Y-87538499D01*
X149449899Y-87449529D01*
X149597858Y-87388242D01*
X149754925Y-87357000D01*
X149915075Y-87357000D01*
X150072142Y-87388242D01*
X150072142Y-87388242D01*
G37*
G36*
X152612142Y-87388242D02*
G01*
X152760101Y-87449529D01*
X152893255Y-87538499D01*
X153006501Y-87651745D01*
X153095471Y-87784899D01*
X153156758Y-87932858D01*
X153188000Y-88089925D01*
X153188000Y-88250075D01*
X153156758Y-88407142D01*
X153095471Y-88555101D01*
X153006501Y-88688255D01*
X152893255Y-88801501D01*
X152760101Y-88890471D01*
X152612142Y-88951758D01*
X152455075Y-88983000D01*
X152294925Y-88983000D01*
X152137858Y-88951758D01*
X151989899Y-88890471D01*
X151856745Y-88801501D01*
X151743499Y-88688255D01*
X151654529Y-88555101D01*
X151593242Y-88407142D01*
X151562000Y-88250075D01*
X151562000Y-88089925D01*
X151593242Y-87932858D01*
X151654529Y-87784899D01*
X151743499Y-87651745D01*
X151856745Y-87538499D01*
X151989899Y-87449529D01*
X152137858Y-87388242D01*
X152294925Y-87357000D01*
X152455075Y-87357000D01*
X152612142Y-87388242D01*
X152612142Y-87388242D01*
G37*
G36*
X151272022Y-72060590D02*
G01*
X151372681Y-72091125D01*
X151423012Y-72106392D01*
X151562164Y-72180771D01*
X151684133Y-72280867D01*
X151784229Y-72402835D01*
X151858608Y-72541987D01*
X151873875Y-72592318D01*
X151904410Y-72692977D01*
X151916000Y-72810655D01*
X151916000Y-76389345D01*
X151904410Y-76507023D01*
X151873875Y-76607682D01*
X151858608Y-76658013D01*
X151784229Y-76797165D01*
X151684133Y-76919133D01*
X151562165Y-77019229D01*
X151423013Y-77093608D01*
X151372682Y-77108875D01*
X151272023Y-77139410D01*
X151115000Y-77154875D01*
X150957978Y-77139410D01*
X150857319Y-77108875D01*
X150806988Y-77093608D01*
X150667836Y-77019229D01*
X150545868Y-76919133D01*
X150445772Y-76797165D01*
X150371393Y-76658013D01*
X150356126Y-76607682D01*
X150325591Y-76507023D01*
X150314001Y-76389345D01*
X150314000Y-72810656D01*
X150325590Y-72692978D01*
X150371392Y-72541989D01*
X150371392Y-72541988D01*
X150445771Y-72402836D01*
X150445772Y-72402835D01*
X150545867Y-72280867D01*
X150667835Y-72180771D01*
X150806987Y-72106392D01*
X150857318Y-72091125D01*
X150957977Y-72060590D01*
X151115000Y-72045125D01*
X151272022Y-72060590D01*
X151272022Y-72060590D01*
G37*
G36*
X148732022Y-72060590D02*
G01*
X148832681Y-72091125D01*
X148883012Y-72106392D01*
X149022164Y-72180771D01*
X149144133Y-72280867D01*
X149244229Y-72402835D01*
X149318608Y-72541987D01*
X149333875Y-72592318D01*
X149364410Y-72692977D01*
X149376000Y-72810655D01*
X149376000Y-76389345D01*
X149364410Y-76507023D01*
X149333875Y-76607682D01*
X149318608Y-76658013D01*
X149244229Y-76797165D01*
X149144133Y-76919133D01*
X149022165Y-77019229D01*
X148883013Y-77093608D01*
X148832682Y-77108875D01*
X148732023Y-77139410D01*
X148575000Y-77154875D01*
X148417978Y-77139410D01*
X148317319Y-77108875D01*
X148266988Y-77093608D01*
X148127836Y-77019229D01*
X148005868Y-76919133D01*
X147905772Y-76797165D01*
X147831393Y-76658013D01*
X147816126Y-76607682D01*
X147785591Y-76507023D01*
X147774001Y-76389345D01*
X147774000Y-72810656D01*
X147785590Y-72692978D01*
X147831392Y-72541989D01*
X147831392Y-72541988D01*
X147905771Y-72402836D01*
X147905772Y-72402835D01*
X148005867Y-72280867D01*
X148127835Y-72180771D01*
X148266987Y-72106392D01*
X148317318Y-72091125D01*
X148417977Y-72060590D01*
X148575000Y-72045125D01*
X148732022Y-72060590D01*
X148732022Y-72060590D01*
G37*
G36*
X146836000Y-77151000D02*
G01*
X145234000Y-77151000D01*
X145234000Y-72049000D01*
X146836000Y-72049000D01*
X146836000Y-77151000D01*
X146836000Y-77151000D01*
G37*
M02*
