M48
; DRILL file {KiCad (5.1.2-1)-1} date Sunday, 21 July 2019 at 21:36:08
; FORMAT={-:-/ absolute / inch / decimal}
; #@! TF.CreationDate,2019-07-21T21:36:08+01:00
; #@! TF.GenerationSoftware,Kicad,Pcbnew,(5.1.2-1)-1
; #@! TF.FileFunction,Plated,1,2,PTH
FMAT,2
INCH
T1C0.0157
T2C0.0300
T3C0.0315
T4C0.0394
%
G90
G05
T1
X4.6242Y-4.0941
X4.6376Y-4.4335
X4.6852Y-3.7772
X4.987Y-3.9634
X5.0181Y-3.9146
X5.64Y-4.1425
X5.8203Y-4.0941
X5.8579Y-4.4063
X5.8854Y-4.2705
X6.8061Y-3.9634
X6.836Y-4.1425
T2
X5.699Y-3.4713
X5.799Y-3.4713
X5.899Y-3.4713
X5.999Y-3.4713
T3
X5.6986Y-5.2906
X5.7986Y-5.2906
X5.8986Y-5.2906
X5.9986Y-5.2906
X5.7494Y-2.937
X5.8494Y-2.937
X5.9494Y-2.937
T4
X4.6593Y-4.2157
X4.6593Y-4.3157
X4.7593Y-4.2157
X4.7593Y-4.3157
X4.8593Y-4.2157
X4.8593Y-4.3157
T0
M30
