G04 #@! TF.GenerationSoftware,KiCad,Pcbnew,(5.1.2-1)-1*
G04 #@! TF.CreationDate,2019-07-21T21:36:06+01:00*
G04 #@! TF.ProjectId,glowy_nfc_reader_module,676c6f77-795f-46e6-9663-5f7265616465,rev?*
G04 #@! TF.SameCoordinates,Original*
G04 #@! TF.FileFunction,Paste,Top*
G04 #@! TF.FilePolarity,Positive*
%FSLAX46Y46*%
G04 Gerber Fmt 4.6, Leading zero omitted, Abs format (unit mm)*
G04 Created by KiCad (PCBNEW (5.1.2-1)-1) date 2019-07-21 21:36:06*
%MOMM*%
%LPD*%
G04 APERTURE LIST*
%ADD10C,0.100000*%
%ADD11C,0.875000*%
%ADD12R,1.700000X0.650000*%
%ADD13R,3.400000X1.300000*%
%ADD14C,0.975000*%
G04 APERTURE END LIST*
D10*
G36*
X122035191Y-113436053D02*
G01*
X122056426Y-113439203D01*
X122077250Y-113444419D01*
X122097462Y-113451651D01*
X122116868Y-113460830D01*
X122135281Y-113471866D01*
X122152524Y-113484654D01*
X122168430Y-113499070D01*
X122182846Y-113514976D01*
X122195634Y-113532219D01*
X122206670Y-113550632D01*
X122215849Y-113570038D01*
X122223081Y-113590250D01*
X122228297Y-113611074D01*
X122231447Y-113632309D01*
X122232500Y-113653750D01*
X122232500Y-114166250D01*
X122231447Y-114187691D01*
X122228297Y-114208926D01*
X122223081Y-114229750D01*
X122215849Y-114249962D01*
X122206670Y-114269368D01*
X122195634Y-114287781D01*
X122182846Y-114305024D01*
X122168430Y-114320930D01*
X122152524Y-114335346D01*
X122135281Y-114348134D01*
X122116868Y-114359170D01*
X122097462Y-114368349D01*
X122077250Y-114375581D01*
X122056426Y-114380797D01*
X122035191Y-114383947D01*
X122013750Y-114385000D01*
X121576250Y-114385000D01*
X121554809Y-114383947D01*
X121533574Y-114380797D01*
X121512750Y-114375581D01*
X121492538Y-114368349D01*
X121473132Y-114359170D01*
X121454719Y-114348134D01*
X121437476Y-114335346D01*
X121421570Y-114320930D01*
X121407154Y-114305024D01*
X121394366Y-114287781D01*
X121383330Y-114269368D01*
X121374151Y-114249962D01*
X121366919Y-114229750D01*
X121361703Y-114208926D01*
X121358553Y-114187691D01*
X121357500Y-114166250D01*
X121357500Y-113653750D01*
X121358553Y-113632309D01*
X121361703Y-113611074D01*
X121366919Y-113590250D01*
X121374151Y-113570038D01*
X121383330Y-113550632D01*
X121394366Y-113532219D01*
X121407154Y-113514976D01*
X121421570Y-113499070D01*
X121437476Y-113484654D01*
X121454719Y-113471866D01*
X121473132Y-113460830D01*
X121492538Y-113451651D01*
X121512750Y-113444419D01*
X121533574Y-113439203D01*
X121554809Y-113436053D01*
X121576250Y-113435000D01*
X122013750Y-113435000D01*
X122035191Y-113436053D01*
X122035191Y-113436053D01*
G37*
D11*
X121795000Y-113910000D03*
D10*
G36*
X120460191Y-113436053D02*
G01*
X120481426Y-113439203D01*
X120502250Y-113444419D01*
X120522462Y-113451651D01*
X120541868Y-113460830D01*
X120560281Y-113471866D01*
X120577524Y-113484654D01*
X120593430Y-113499070D01*
X120607846Y-113514976D01*
X120620634Y-113532219D01*
X120631670Y-113550632D01*
X120640849Y-113570038D01*
X120648081Y-113590250D01*
X120653297Y-113611074D01*
X120656447Y-113632309D01*
X120657500Y-113653750D01*
X120657500Y-114166250D01*
X120656447Y-114187691D01*
X120653297Y-114208926D01*
X120648081Y-114229750D01*
X120640849Y-114249962D01*
X120631670Y-114269368D01*
X120620634Y-114287781D01*
X120607846Y-114305024D01*
X120593430Y-114320930D01*
X120577524Y-114335346D01*
X120560281Y-114348134D01*
X120541868Y-114359170D01*
X120522462Y-114368349D01*
X120502250Y-114375581D01*
X120481426Y-114380797D01*
X120460191Y-114383947D01*
X120438750Y-114385000D01*
X120001250Y-114385000D01*
X119979809Y-114383947D01*
X119958574Y-114380797D01*
X119937750Y-114375581D01*
X119917538Y-114368349D01*
X119898132Y-114359170D01*
X119879719Y-114348134D01*
X119862476Y-114335346D01*
X119846570Y-114320930D01*
X119832154Y-114305024D01*
X119819366Y-114287781D01*
X119808330Y-114269368D01*
X119799151Y-114249962D01*
X119791919Y-114229750D01*
X119786703Y-114208926D01*
X119783553Y-114187691D01*
X119782500Y-114166250D01*
X119782500Y-113653750D01*
X119783553Y-113632309D01*
X119786703Y-113611074D01*
X119791919Y-113590250D01*
X119799151Y-113570038D01*
X119808330Y-113550632D01*
X119819366Y-113532219D01*
X119832154Y-113514976D01*
X119846570Y-113499070D01*
X119862476Y-113484654D01*
X119879719Y-113471866D01*
X119898132Y-113460830D01*
X119917538Y-113451651D01*
X119937750Y-113444419D01*
X119958574Y-113439203D01*
X119979809Y-113436053D01*
X120001250Y-113435000D01*
X120438750Y-113435000D01*
X120460191Y-113436053D01*
X120460191Y-113436053D01*
G37*
D11*
X120220000Y-113910000D03*
D12*
X117325000Y-101980000D03*
X117325000Y-100710000D03*
X117325000Y-99440000D03*
X117325000Y-98170000D03*
X124625000Y-98170000D03*
X124625000Y-99440000D03*
X124625000Y-100710000D03*
X124625000Y-101980000D03*
D10*
G36*
X174425191Y-94976053D02*
G01*
X174446426Y-94979203D01*
X174467250Y-94984419D01*
X174487462Y-94991651D01*
X174506868Y-95000830D01*
X174525281Y-95011866D01*
X174542524Y-95024654D01*
X174558430Y-95039070D01*
X174572846Y-95054976D01*
X174585634Y-95072219D01*
X174596670Y-95090632D01*
X174605849Y-95110038D01*
X174613081Y-95130250D01*
X174618297Y-95151074D01*
X174621447Y-95172309D01*
X174622500Y-95193750D01*
X174622500Y-95706250D01*
X174621447Y-95727691D01*
X174618297Y-95748926D01*
X174613081Y-95769750D01*
X174605849Y-95789962D01*
X174596670Y-95809368D01*
X174585634Y-95827781D01*
X174572846Y-95845024D01*
X174558430Y-95860930D01*
X174542524Y-95875346D01*
X174525281Y-95888134D01*
X174506868Y-95899170D01*
X174487462Y-95908349D01*
X174467250Y-95915581D01*
X174446426Y-95920797D01*
X174425191Y-95923947D01*
X174403750Y-95925000D01*
X173966250Y-95925000D01*
X173944809Y-95923947D01*
X173923574Y-95920797D01*
X173902750Y-95915581D01*
X173882538Y-95908349D01*
X173863132Y-95899170D01*
X173844719Y-95888134D01*
X173827476Y-95875346D01*
X173811570Y-95860930D01*
X173797154Y-95845024D01*
X173784366Y-95827781D01*
X173773330Y-95809368D01*
X173764151Y-95789962D01*
X173756919Y-95769750D01*
X173751703Y-95748926D01*
X173748553Y-95727691D01*
X173747500Y-95706250D01*
X173747500Y-95193750D01*
X173748553Y-95172309D01*
X173751703Y-95151074D01*
X173756919Y-95130250D01*
X173764151Y-95110038D01*
X173773330Y-95090632D01*
X173784366Y-95072219D01*
X173797154Y-95054976D01*
X173811570Y-95039070D01*
X173827476Y-95024654D01*
X173844719Y-95011866D01*
X173863132Y-95000830D01*
X173882538Y-94991651D01*
X173902750Y-94984419D01*
X173923574Y-94979203D01*
X173944809Y-94976053D01*
X173966250Y-94975000D01*
X174403750Y-94975000D01*
X174425191Y-94976053D01*
X174425191Y-94976053D01*
G37*
D11*
X174185000Y-95450000D03*
D10*
G36*
X176000191Y-94976053D02*
G01*
X176021426Y-94979203D01*
X176042250Y-94984419D01*
X176062462Y-94991651D01*
X176081868Y-95000830D01*
X176100281Y-95011866D01*
X176117524Y-95024654D01*
X176133430Y-95039070D01*
X176147846Y-95054976D01*
X176160634Y-95072219D01*
X176171670Y-95090632D01*
X176180849Y-95110038D01*
X176188081Y-95130250D01*
X176193297Y-95151074D01*
X176196447Y-95172309D01*
X176197500Y-95193750D01*
X176197500Y-95706250D01*
X176196447Y-95727691D01*
X176193297Y-95748926D01*
X176188081Y-95769750D01*
X176180849Y-95789962D01*
X176171670Y-95809368D01*
X176160634Y-95827781D01*
X176147846Y-95845024D01*
X176133430Y-95860930D01*
X176117524Y-95875346D01*
X176100281Y-95888134D01*
X176081868Y-95899170D01*
X176062462Y-95908349D01*
X176042250Y-95915581D01*
X176021426Y-95920797D01*
X176000191Y-95923947D01*
X175978750Y-95925000D01*
X175541250Y-95925000D01*
X175519809Y-95923947D01*
X175498574Y-95920797D01*
X175477750Y-95915581D01*
X175457538Y-95908349D01*
X175438132Y-95899170D01*
X175419719Y-95888134D01*
X175402476Y-95875346D01*
X175386570Y-95860930D01*
X175372154Y-95845024D01*
X175359366Y-95827781D01*
X175348330Y-95809368D01*
X175339151Y-95789962D01*
X175331919Y-95769750D01*
X175326703Y-95748926D01*
X175323553Y-95727691D01*
X175322500Y-95706250D01*
X175322500Y-95193750D01*
X175323553Y-95172309D01*
X175326703Y-95151074D01*
X175331919Y-95130250D01*
X175339151Y-95110038D01*
X175348330Y-95090632D01*
X175359366Y-95072219D01*
X175372154Y-95054976D01*
X175386570Y-95039070D01*
X175402476Y-95024654D01*
X175419719Y-95011866D01*
X175438132Y-95000830D01*
X175457538Y-94991651D01*
X175477750Y-94984419D01*
X175498574Y-94979203D01*
X175519809Y-94976053D01*
X175541250Y-94975000D01*
X175978750Y-94975000D01*
X176000191Y-94976053D01*
X176000191Y-94976053D01*
G37*
D11*
X175760000Y-95450000D03*
D13*
X176485000Y-108260000D03*
X176485000Y-99560000D03*
D10*
G36*
X120482691Y-93606053D02*
G01*
X120503926Y-93609203D01*
X120524750Y-93614419D01*
X120544962Y-93621651D01*
X120564368Y-93630830D01*
X120582781Y-93641866D01*
X120600024Y-93654654D01*
X120615930Y-93669070D01*
X120630346Y-93684976D01*
X120643134Y-93702219D01*
X120654170Y-93720632D01*
X120663349Y-93740038D01*
X120670581Y-93760250D01*
X120675797Y-93781074D01*
X120678947Y-93802309D01*
X120680000Y-93823750D01*
X120680000Y-94336250D01*
X120678947Y-94357691D01*
X120675797Y-94378926D01*
X120670581Y-94399750D01*
X120663349Y-94419962D01*
X120654170Y-94439368D01*
X120643134Y-94457781D01*
X120630346Y-94475024D01*
X120615930Y-94490930D01*
X120600024Y-94505346D01*
X120582781Y-94518134D01*
X120564368Y-94529170D01*
X120544962Y-94538349D01*
X120524750Y-94545581D01*
X120503926Y-94550797D01*
X120482691Y-94553947D01*
X120461250Y-94555000D01*
X120023750Y-94555000D01*
X120002309Y-94553947D01*
X119981074Y-94550797D01*
X119960250Y-94545581D01*
X119940038Y-94538349D01*
X119920632Y-94529170D01*
X119902219Y-94518134D01*
X119884976Y-94505346D01*
X119869070Y-94490930D01*
X119854654Y-94475024D01*
X119841866Y-94457781D01*
X119830830Y-94439368D01*
X119821651Y-94419962D01*
X119814419Y-94399750D01*
X119809203Y-94378926D01*
X119806053Y-94357691D01*
X119805000Y-94336250D01*
X119805000Y-93823750D01*
X119806053Y-93802309D01*
X119809203Y-93781074D01*
X119814419Y-93760250D01*
X119821651Y-93740038D01*
X119830830Y-93720632D01*
X119841866Y-93702219D01*
X119854654Y-93684976D01*
X119869070Y-93669070D01*
X119884976Y-93654654D01*
X119902219Y-93641866D01*
X119920632Y-93630830D01*
X119940038Y-93621651D01*
X119960250Y-93614419D01*
X119981074Y-93609203D01*
X120002309Y-93606053D01*
X120023750Y-93605000D01*
X120461250Y-93605000D01*
X120482691Y-93606053D01*
X120482691Y-93606053D01*
G37*
D11*
X120242500Y-94080000D03*
D10*
G36*
X122057691Y-93606053D02*
G01*
X122078926Y-93609203D01*
X122099750Y-93614419D01*
X122119962Y-93621651D01*
X122139368Y-93630830D01*
X122157781Y-93641866D01*
X122175024Y-93654654D01*
X122190930Y-93669070D01*
X122205346Y-93684976D01*
X122218134Y-93702219D01*
X122229170Y-93720632D01*
X122238349Y-93740038D01*
X122245581Y-93760250D01*
X122250797Y-93781074D01*
X122253947Y-93802309D01*
X122255000Y-93823750D01*
X122255000Y-94336250D01*
X122253947Y-94357691D01*
X122250797Y-94378926D01*
X122245581Y-94399750D01*
X122238349Y-94419962D01*
X122229170Y-94439368D01*
X122218134Y-94457781D01*
X122205346Y-94475024D01*
X122190930Y-94490930D01*
X122175024Y-94505346D01*
X122157781Y-94518134D01*
X122139368Y-94529170D01*
X122119962Y-94538349D01*
X122099750Y-94545581D01*
X122078926Y-94550797D01*
X122057691Y-94553947D01*
X122036250Y-94555000D01*
X121598750Y-94555000D01*
X121577309Y-94553947D01*
X121556074Y-94550797D01*
X121535250Y-94545581D01*
X121515038Y-94538349D01*
X121495632Y-94529170D01*
X121477219Y-94518134D01*
X121459976Y-94505346D01*
X121444070Y-94490930D01*
X121429654Y-94475024D01*
X121416866Y-94457781D01*
X121405830Y-94439368D01*
X121396651Y-94419962D01*
X121389419Y-94399750D01*
X121384203Y-94378926D01*
X121381053Y-94357691D01*
X121380000Y-94336250D01*
X121380000Y-93823750D01*
X121381053Y-93802309D01*
X121384203Y-93781074D01*
X121389419Y-93760250D01*
X121396651Y-93740038D01*
X121405830Y-93720632D01*
X121416866Y-93702219D01*
X121429654Y-93684976D01*
X121444070Y-93669070D01*
X121459976Y-93654654D01*
X121477219Y-93641866D01*
X121495632Y-93630830D01*
X121515038Y-93621651D01*
X121535250Y-93614419D01*
X121556074Y-93609203D01*
X121577309Y-93606053D01*
X121598750Y-93605000D01*
X122036250Y-93605000D01*
X122057691Y-93606053D01*
X122057691Y-93606053D01*
G37*
D11*
X121817500Y-94080000D03*
D10*
G36*
X144897642Y-127591174D02*
G01*
X144921303Y-127594684D01*
X144944507Y-127600496D01*
X144967029Y-127608554D01*
X144988653Y-127618782D01*
X145009170Y-127631079D01*
X145028383Y-127645329D01*
X145046107Y-127661393D01*
X145062171Y-127679117D01*
X145076421Y-127698330D01*
X145088718Y-127718847D01*
X145098946Y-127740471D01*
X145107004Y-127762993D01*
X145112816Y-127786197D01*
X145116326Y-127809858D01*
X145117500Y-127833750D01*
X145117500Y-128746250D01*
X145116326Y-128770142D01*
X145112816Y-128793803D01*
X145107004Y-128817007D01*
X145098946Y-128839529D01*
X145088718Y-128861153D01*
X145076421Y-128881670D01*
X145062171Y-128900883D01*
X145046107Y-128918607D01*
X145028383Y-128934671D01*
X145009170Y-128948921D01*
X144988653Y-128961218D01*
X144967029Y-128971446D01*
X144944507Y-128979504D01*
X144921303Y-128985316D01*
X144897642Y-128988826D01*
X144873750Y-128990000D01*
X144386250Y-128990000D01*
X144362358Y-128988826D01*
X144338697Y-128985316D01*
X144315493Y-128979504D01*
X144292971Y-128971446D01*
X144271347Y-128961218D01*
X144250830Y-128948921D01*
X144231617Y-128934671D01*
X144213893Y-128918607D01*
X144197829Y-128900883D01*
X144183579Y-128881670D01*
X144171282Y-128861153D01*
X144161054Y-128839529D01*
X144152996Y-128817007D01*
X144147184Y-128793803D01*
X144143674Y-128770142D01*
X144142500Y-128746250D01*
X144142500Y-127833750D01*
X144143674Y-127809858D01*
X144147184Y-127786197D01*
X144152996Y-127762993D01*
X144161054Y-127740471D01*
X144171282Y-127718847D01*
X144183579Y-127698330D01*
X144197829Y-127679117D01*
X144213893Y-127661393D01*
X144231617Y-127645329D01*
X144250830Y-127631079D01*
X144271347Y-127618782D01*
X144292971Y-127608554D01*
X144315493Y-127600496D01*
X144338697Y-127594684D01*
X144362358Y-127591174D01*
X144386250Y-127590000D01*
X144873750Y-127590000D01*
X144897642Y-127591174D01*
X144897642Y-127591174D01*
G37*
D14*
X144630000Y-128290000D03*
D10*
G36*
X146772642Y-127591174D02*
G01*
X146796303Y-127594684D01*
X146819507Y-127600496D01*
X146842029Y-127608554D01*
X146863653Y-127618782D01*
X146884170Y-127631079D01*
X146903383Y-127645329D01*
X146921107Y-127661393D01*
X146937171Y-127679117D01*
X146951421Y-127698330D01*
X146963718Y-127718847D01*
X146973946Y-127740471D01*
X146982004Y-127762993D01*
X146987816Y-127786197D01*
X146991326Y-127809858D01*
X146992500Y-127833750D01*
X146992500Y-128746250D01*
X146991326Y-128770142D01*
X146987816Y-128793803D01*
X146982004Y-128817007D01*
X146973946Y-128839529D01*
X146963718Y-128861153D01*
X146951421Y-128881670D01*
X146937171Y-128900883D01*
X146921107Y-128918607D01*
X146903383Y-128934671D01*
X146884170Y-128948921D01*
X146863653Y-128961218D01*
X146842029Y-128971446D01*
X146819507Y-128979504D01*
X146796303Y-128985316D01*
X146772642Y-128988826D01*
X146748750Y-128990000D01*
X146261250Y-128990000D01*
X146237358Y-128988826D01*
X146213697Y-128985316D01*
X146190493Y-128979504D01*
X146167971Y-128971446D01*
X146146347Y-128961218D01*
X146125830Y-128948921D01*
X146106617Y-128934671D01*
X146088893Y-128918607D01*
X146072829Y-128900883D01*
X146058579Y-128881670D01*
X146046282Y-128861153D01*
X146036054Y-128839529D01*
X146027996Y-128817007D01*
X146022184Y-128793803D01*
X146018674Y-128770142D01*
X146017500Y-128746250D01*
X146017500Y-127833750D01*
X146018674Y-127809858D01*
X146022184Y-127786197D01*
X146027996Y-127762993D01*
X146036054Y-127740471D01*
X146046282Y-127718847D01*
X146058579Y-127698330D01*
X146072829Y-127679117D01*
X146088893Y-127661393D01*
X146106617Y-127645329D01*
X146125830Y-127631079D01*
X146146347Y-127618782D01*
X146167971Y-127608554D01*
X146190493Y-127600496D01*
X146213697Y-127594684D01*
X146237358Y-127591174D01*
X146261250Y-127590000D01*
X146748750Y-127590000D01*
X146772642Y-127591174D01*
X146772642Y-127591174D01*
G37*
D14*
X146505000Y-128290000D03*
M02*
